<?xml version="1.0" encoding="UTF-8" standalone="no"?>
<svg width="24px" height="24px" viewBox="0 0 24 24" version="1.1" xmlns="http://www.w3.org/2000/svg" xmlns:xlink="http://www.w3.org/1999/xlink" xmlns:sketch="http://www.bohemiancoding.com/sketch/ns">
    <!-- Generator: Sketch 3.5.2 (25235) - http://www.bohemiancoding.com/sketch -->
    <title>Group</title>
    <desc>Created with Sketch.</desc>
    <defs></defs>
    <g id="markdown" stroke="none" stroke-width="1" fill="none" fill-rule="evenodd" sketch:type="MSPage">
        <g id="markdownï¼icon-copy" sketch:type="MSArtboardGroup" transform="translate(-230.000000, -329.000000)">
            <g id="Group" sketch:type="MSLayerGroup" transform="translate(230.000000, 270.000000)">
                <g id="Group-7" transform="translate(0.000000, 59.000000)"></g>
            </g>
            <g id="Group-2-Copy-3" sketch:type="MSLayerGroup" transform="translate(238.000000, 330.000000)" fill="#398DEE">
                <path d="M3.763,11.352 L2.157,11.342 L2.157,14.671 L3.845,14.711 C5.04,14.711 5.638,14.119 5.638,12.936 C5.584,11.912 4.959,11.384 3.763,11.352 M3.531,7.365 L2.157,7.365 L2.157,9.964 L3.531,9.964 C4.596,9.937 5.141,9.483 5.168,8.603 C5.141,7.778 4.596,7.365 3.531,7.365 M4.36,15.983 L0,15.983 L0,6 L4.126,6 C6.157,6.065 7.236,6.86 7.361,8.386 C7.329,9.652 6.673,10.431 5.392,10.723 L5.392,10.772 C6.861,11.032 7.657,11.828 7.783,13.158 C7.783,15.042 6.641,15.983 4.36,15.983" id="Page-1-Copy" sketch:type="MSShapeGroup"></path>
            </g>
        </g>
    </g>
</svg>