<?xml version="1.0" encoding="UTF-8" standalone="no"?>
<svg width="24px" height="24px" viewBox="0 0 24 24" version="1.1" xmlns="http://www.w3.org/2000/svg" xmlns:xlink="http://www.w3.org/1999/xlink">
    <!-- Generator: Sketch 3.6.1 (26313) - http://www.bohemiancoding.com/sketch -->
    <title>Group Copy 26</title>
    <desc>Created with Sketch.</desc>
    <defs></defs>
    <g id="markdown" stroke="none" stroke-width="1" fill="none" fill-rule="evenodd">
        <g id="markdownï¼icon-copy" transform="translate(-634.000000, -270.000000)">
            <g id="Group-2" transform="translate(238.000000, 271.000000)" fill="#959FB0">
                <g id="Group-6-Copy" transform="translate(403.000000, 5.000000)">
                    <g id="Group-9" transform="translate(0.000000, 1.000000)">
                        <path d="M9,5.55111512e-17 L9,0 L0.830146587,0 C0.375439922,0 0,0.374018818 0,0.835394412 L0,9.16460559 C0,9.6201992 0.374018818,10 0.835394412,10 L9.16460559,10 C9.6201992,10 10,9.63054881 10,9.17480767 L10,6.0098629 L9,6.0098629 L9,9.17480767 C9,9.07244697 9.07369329,9 9.16460559,9 L0.835394412,9 C0.929361477,9 1,9.07097623 1,9.16460559 L1,0.835394412 C1,0.926901785 0.927133076,1 0.830146587,1 L9,1 L9,5.55111512e-17 Z" id="Rectangle-4340-Copy"></path>
                    </g>
                    <g id="Group-8" transform="translate(6.311923, 4.889087) rotate(-45.000000) translate(-6.311923, -4.889087) translate(2.311923, 2.389087)">
                        <rect id="Rectangle-4500" transform="translate(0.701010, 2.201010) rotate(-270.000000) translate(-0.701010, -2.201010) " x="-1.29898987" y="1.70101013" width="4" height="1"></rect>
                        <rect id="Rectangle-4500-Copy" x="0.201010127" y="3.20101013" width="7" height="1"></rect>
                    </g>
                </g>
            </g>
            <g id="Group" transform="translate(230.000000, 270.000000)">
                <g id="Group-10"></g>
            </g>
        </g>
    </g>
</svg>