<?xml version="1.0" encoding="UTF-8" standalone="no"?>
<svg width="24px" height="24px" viewBox="0 0 24 24" version="1.1" xmlns="http://www.w3.org/2000/svg" xmlns:xlink="http://www.w3.org/1999/xlink" xmlns:sketch="http://www.bohemiancoding.com/sketch/ns">
    <!-- Generator: Sketch 3.5.2 (25235) - http://www.bohemiancoding.com/sketch -->
    <title>Group Copy 30</title>
    <desc>Created with Sketch.</desc>
    <defs></defs>
    <g id="markdown" stroke="none" stroke-width="1" fill="none" fill-rule="evenodd" sketch:type="MSPage">
        <g id="markdown－icon-copy" sketch:type="MSArtboardGroup" transform="translate(-716.000000, -329.000000)">
            <g id="Group" sketch:type="MSLayerGroup" transform="translate(230.000000, 270.000000)">
                <g id="Group-7" transform="translate(0.000000, 59.000000)"></g>
            </g>
            <g id="Group-2-Copy-3" sketch:type="MSLayerGroup" transform="translate(238.000000, 330.000000)" fill="#398DEE">
                <g id="图形-copy" transform="translate(482.000000, 6.000000)" sketch:type="MSShapeGroup">
                    <path d="M3.7580711,1.15020956 L0.152864,4.64679493 C-0.0482808047,4.84187941 -0.0482808047,5.15817054 0.152864,5.35323005 L3.7580711,8.84981541 L4.48642594,8.14338029 L1.24539626,5.00002498 L4.48642594,1.85664468 L3.7580711,1.15020956 Z" id="Shape"></path>
                    <path d="M13.2419547,1.15020956 L12.5135998,1.85664468 L15.7546295,5 L12.5135998,8.14335532 L13.2419547,8.84979044 L16.8471618,5.35320507 C17.0482551,5.15814556 17.0482551,4.84185444 16.8471618,4.64679493 L13.2419547,1.15020956 Z" id="Shape"></path>
                    <path d="M9.68964109,0.33607961 L6.34233505,9.31968156 L7.31035891,9.66394537 L10.6576392,0.680343415 L9.68964109,0.33607961 Z" id="Shape"></path>
                </g>
            </g>
        </g>
    </g>
</svg>