<?xml version="1.0" encoding="UTF-8" standalone="no"?>
<svg width="24px" height="24px" viewBox="0 0 24 24" version="1.1" xmlns="http://www.w3.org/2000/svg" xmlns:xlink="http://www.w3.org/1999/xlink" xmlns:sketch="http://www.bohemiancoding.com/sketch/ns">
    <!-- Generator: Sketch 3.4.4 (17249) - http://www.bohemiancoding.com/sketch -->
    <title>Slice 2</title>
    <desc>Created with Sketch.</desc>
    <defs></defs>
    <g id="Page-1" stroke="none" stroke-width="1" fill="none" fill-rule="evenodd" sketch:type="MSPage">
        <g id="formula_hover" sketch:type="MSLayerGroup" transform="translate(-543.000000, 0.000000)" fill="#398DEE">
            <g id="Group-Copy-33" sketch:type="MSShapeGroup">
                <g id="markdown">
                    <g id="markdownï¼icon-copy">
                        <g id="Group-2-Copy-3" transform="translate(550.000000, 6.000000)">
                            <g id="Group-10-Copy">
                                <g id="2" transform="translate(9.000000, 0.000000)">
                                    <path d="M2.8224,3.3152 L2.7552,4 L0.32,4 L0.3872,3.3568 C1.28747117,2.85546416 1.7376,2.35200253 1.7376,1.8464 C1.7376,1.42613123 1.44640291,1.216 0.864,1.216 C0.708265888,1.216 0.542934208,1.23093318 0.368,1.2608 L0.4288,0.6656 C0.614400928,0.618666432 0.87786496,0.5952 1.2192,0.5952 C1.65440218,0.5952 1.98613219,0.687999072 2.2144,0.8736 C2.44266781,1.05920093 2.5568,1.3119984 2.5568,1.632 C2.5568,2.03306867 2.40800149,2.37759856 2.1104,2.6656 C1.81279851,2.95360144 1.49760166,3.17226592 1.1648,3.3216 L1.1648,3.3632 C1.63626902,3.3632 2.18879683,3.34720016 2.8224,3.3152 L2.8224,3.3152 Z"></path>
                                </g>
                                <g id="Page-1" transform="translate(0.276903, 2.000000)">
                                    <path d="M6.10616766,0 L0,8.72309665 L1.74461933,8.72309665 L7.85078699,0 L6.10616766,0 L6.10616766,0 L6.10616766,0 Z" id="Fill-1"></path>
                                    <path d="M0.218077416,0 L6.32424507,8.72309665 L8.06886441,8.72309665 L1.96269675,0 L0.218077416,0 L0.218077416,0 L0.218077416,0 Z" id="Fill-2"></path>
                                </g>
                            </g>
                        </g>
                    </g>
                </g>
            </g>
        </g>
    </g>
</svg>