<?xml version="1.0" encoding="UTF-8" standalone="no"?>
<svg width="24px" height="24px" viewBox="0 0 24 24" version="1.1" xmlns="http://www.w3.org/2000/svg" xmlns:xlink="http://www.w3.org/1999/xlink" xmlns:sketch="http://www.bohemiancoding.com/sketch/ns">
    <!-- Generator: Sketch 3.5.2 (25235) - http://www.bohemiancoding.com/sketch -->
    <title>Group Copy 15</title>
    <desc>Created with Sketch.</desc>
    <defs></defs>
    <g id="markdown" stroke="none" stroke-width="1" fill="none" fill-rule="evenodd" sketch:type="MSPage">
        <g id="markdownï¼icon-copy" sketch:type="MSArtboardGroup" transform="translate(-384.000000, -329.000000)">
            <g id="Group" sketch:type="MSLayerGroup" transform="translate(230.000000, 270.000000)">
                <g id="Group-7" transform="translate(0.000000, 59.000000)"></g>
            </g>
            <g id="Group-2-Copy-3" sketch:type="MSLayerGroup" transform="translate(238.000000, 330.000000)" fill="#398DEE">
                <path d="M152.304027,6 L152.304027,9.27020152 C152.578797,8.97741342 152.883968,8.77922137 153.219548,8.67561943 C153.555128,8.57201748 153.916603,8.52021729 154.303985,8.52021729 C154.641817,8.52021729 154.952618,8.57426967 155.236397,8.68237604 C155.520177,8.79048242 155.764538,8.93912645 155.96949,9.12831261 C156.174442,9.31749877 156.333221,9.54046483 156.445831,9.79721747 C156.558442,10.0539701 156.614747,10.3332407 156.614747,10.6350377 L156.614747,15.5133135 L155.324233,15.5133135 L155.324233,10.8039531 C155.324233,10.5967492 155.289325,10.4210789 155.219506,10.2769371 C155.149687,10.1327953 155.056222,10.0145557 154.939106,9.92221484 C154.821991,9.82987398 154.687986,9.7634346 154.537088,9.72289471 C154.386189,9.68235482 154.231915,9.66208518 154.07426,9.66208518 C153.862551,9.66208518 153.651972,9.70600273 153.442516,9.79383916 C153.23306,9.88167559 153.043877,10.0021674 152.874961,10.155318 C152.706044,10.3084687 152.568661,10.4886433 152.462807,10.6958472 C152.356953,10.9030511 152.304027,11.1260172 152.304027,11.3647521 L152.304027,15.5133135 L151,15.5133135 L151,6 L152.304027,6 Z M157.898798,9.20263537 C157.948347,8.74768771 158.060956,8.33553833 158.236629,7.96617488 C158.412302,7.59681143 158.640898,7.2815059 158.922425,7.02024882 C159.203952,6.75899175 159.533897,6.55742142 159.912269,6.4155318 C160.290641,6.27364219 160.707295,6.20269844 161.162243,6.20269844 C161.639713,6.20269844 162.060871,6.27702046 162.42573,6.42566673 C162.790589,6.57431299 163.096886,6.77137895 163.344629,7.01687051 C163.592373,7.26236208 163.778178,7.54388487 163.90205,7.86144735 C164.025922,8.17900983 164.087857,8.50670237 164.087857,8.84453479 C164.087857,9.22290711 164.031552,9.56186056 163.918942,9.86140531 C163.806331,10.1609501 163.656561,10.4334641 163.469627,10.6789557 C163.282693,10.9244473 163.066483,11.1474133 162.820992,11.3478605 C162.5755,11.5483078 162.317625,11.7386172 162.047359,11.9187945 C161.777093,12.0989718 161.505705,12.2757681 161.233187,12.4491887 C160.960669,12.6226094 160.70392,12.8016579 160.462933,12.9863396 C160.221946,13.1710213 160.00461,13.3692134 159.81092,13.5809217 C159.617229,13.79263 159.466333,14.0291092 159.358227,14.2903663 L164.087857,14.2903663 L164.087857,15.5133135 L157.925824,15.5133135 L157.925824,14.4727949 C157.925824,14.1484757 157.995642,13.8523137 158.135279,13.5843 C158.274917,13.3162863 158.45847,13.066294 158.685944,12.8343158 C158.913417,12.6023375 159.172418,12.3850019 159.462954,12.1823025 C159.75349,11.979603 160.050778,11.7825371 160.354827,11.5910987 C160.658877,11.3996603 160.956165,11.2093509 161.246701,11.0201647 C161.537236,10.8309786 161.795111,10.6327865 162.020333,10.4255826 C162.245555,10.2183788 162.427981,9.99879097 162.567619,9.7668127 C162.707256,9.53483444 162.777074,9.28146392 162.777074,9.00669355 C162.777074,8.71840988 162.735408,8.46503936 162.652076,8.24657439 C162.568744,8.02810942 162.453883,7.84568265 162.307489,7.6992886 C162.161095,7.55289455 161.989929,7.4436637 161.793986,7.37159279 C161.598044,7.29952187 161.387464,7.26348695 161.162243,7.26348695 C160.891977,7.26348695 160.644237,7.30740451 160.419015,7.39524094 C160.193794,7.48307737 159.997854,7.61032567 159.83119,7.77698967 C159.664526,7.94365367 159.532773,8.14747617 159.435928,8.3884633 C159.339082,8.62945043 159.281652,8.90083841 159.263634,9.20263537 L157.898798,9.20263537 Z" id="h2-copy" sketch:type="MSShapeGroup"></path>
            </g>
        </g>
    </g>
</svg>