<?xml version="1.0" encoding="UTF-8" standalone="no"?>
<svg width="24px" height="24px" viewBox="0 0 24 24" version="1.1" xmlns="http://www.w3.org/2000/svg" xmlns:xlink="http://www.w3.org/1999/xlink" xmlns:sketch="http://www.bohemiancoding.com/sketch/ns">
    <!-- Generator: Sketch 3.5.2 (25235) - http://www.bohemiancoding.com/sketch -->
    <title>Group Copy 17</title>
    <desc>Created with Sketch.</desc>
    <defs></defs>
    <g id="markdown" stroke="none" stroke-width="1" fill="none" fill-rule="evenodd" sketch:type="MSPage">
        <g id="markdownï¼icon-copy" sketch:type="MSArtboardGroup" transform="translate(-432.000000, -329.000000)">
            <g id="Group" sketch:type="MSLayerGroup" transform="translate(230.000000, 270.000000)">
                <g id="Group-7" transform="translate(0.000000, 59.000000)"></g>
            </g>
            <g id="Group-2-Copy-3" sketch:type="MSLayerGroup" transform="translate(238.000000, 330.000000)" fill="#398DEE">
                <path d="M200.304027,6 L200.304027,9.27020152 C200.578797,8.97741342 200.883968,8.77922137 201.219548,8.67561943 C201.555128,8.57201748 201.916603,8.52021729 202.303985,8.52021729 C202.641817,8.52021729 202.952618,8.57426967 203.236397,8.68237604 C203.520177,8.79048242 203.764538,8.93912645 203.96949,9.12831261 C204.174442,9.31749877 204.333221,9.54046483 204.445831,9.79721747 C204.558442,10.0539701 204.614747,10.3332407 204.614747,10.6350377 L204.614747,15.5133135 L203.324233,15.5133135 L203.324233,10.8039531 C203.324233,10.5967492 203.289325,10.4210789 203.219506,10.2769371 C203.149687,10.1327953 203.056222,10.0145557 202.939106,9.92221484 C202.821991,9.82987398 202.687986,9.7634346 202.537088,9.72289471 C202.386189,9.68235482 202.231915,9.66208518 202.07426,9.66208518 C201.862551,9.66208518 201.651972,9.70600273 201.442516,9.79383916 C201.23306,9.88167559 201.043877,10.0021674 200.874961,10.155318 C200.706044,10.3084687 200.568661,10.4886433 200.462807,10.6958472 C200.356953,10.9030511 200.304027,11.1260172 200.304027,11.3647521 L200.304027,15.5133135 L199,15.5133135 L199,6 L200.304027,6 Z M209.763582,15.5133135 L209.763582,13.2836307 L205.65556,13.2836307 L205.65556,11.9931173 L209.770338,6.32431751 L211.027069,6.32431751 L211.027069,12.2295988 L212.337852,12.2295988 L212.337852,13.2836307 L211.027069,13.2836307 L211.027069,15.5133135 L209.763582,15.5133135 Z M206.925803,12.2295988 L209.763582,12.2295988 L209.763582,8.22968286 L206.925803,12.2295988 Z" id="h4-copy" sketch:type="MSShapeGroup"></path>
            </g>
        </g>
    </g>
</svg>