<?xml version="1.0" encoding="UTF-8" standalone="no"?>
<svg width="24px" height="24px" viewBox="0 0 24 24" version="1.1" xmlns="http://www.w3.org/2000/svg" xmlns:xlink="http://www.w3.org/1999/xlink" xmlns:sketch="http://www.bohemiancoding.com/sketch/ns">
    <!-- Generator: Sketch 3.5.2 (25235) - http://www.bohemiancoding.com/sketch -->
    <title>Group Copy 18</title>
    <desc>Created with Sketch.</desc>
    <defs></defs>
    <g id="markdown" stroke="none" stroke-width="1" fill="none" fill-rule="evenodd" sketch:type="MSPage">
        <g id="markdownï¼icon-copy" sketch:type="MSArtboardGroup" transform="translate(-456.000000, -329.000000)">
            <g id="Group" sketch:type="MSLayerGroup" transform="translate(230.000000, 270.000000)">
                <g id="Group-7" transform="translate(0.000000, 59.000000)"></g>
            </g>
            <g id="Group-2-Copy-3" sketch:type="MSLayerGroup" transform="translate(238.000000, 330.000000)" fill="#398DEE">
                <path d="M224.304027,6 L224.304027,9.27020152 C224.578797,8.97741342 224.883968,8.77922137 225.219548,8.67561943 C225.555128,8.57201748 225.916603,8.52021729 226.303985,8.52021729 C226.641817,8.52021729 226.952618,8.57426967 227.236397,8.68237604 C227.520177,8.79048242 227.764538,8.93912645 227.96949,9.12831261 C228.174442,9.31749877 228.333221,9.54046483 228.445831,9.79721747 C228.558442,10.0539701 228.614747,10.3332407 228.614747,10.6350377 L228.614747,15.5133135 L227.324233,15.5133135 L227.324233,10.8039531 C227.324233,10.5967492 227.289325,10.4210789 227.219506,10.2769371 C227.149687,10.1327953 227.056222,10.0145557 226.939106,9.92221484 C226.821991,9.82987398 226.687986,9.7634346 226.537088,9.72289471 C226.386189,9.68235482 226.231915,9.66208518 226.07426,9.66208518 C225.862551,9.66208518 225.651972,9.70600273 225.442516,9.79383916 C225.23306,9.88167559 225.043877,10.0021674 224.874961,10.155318 C224.706044,10.3084687 224.568661,10.4886433 224.462807,10.6958472 C224.356953,10.9030511 224.304027,11.1260172 224.304027,11.3647521 L224.304027,15.5133135 L223,15.5133135 L223,6 L224.304027,6 Z M230.020417,11.2701595 L230.648782,6.32431751 L235.729756,6.32431751 L235.729756,7.39861925 L231.696057,7.39861925 C231.682544,7.52924778 231.662275,7.70266583 231.635248,7.91887858 C231.612726,8.10806474 231.582321,8.35242653 231.544034,8.65197128 C231.505746,8.95151603 231.457324,9.32425221 231.398766,9.77019101 C231.56543,9.68010236 231.73547,9.60803253 231.908891,9.55397934 C232.082311,9.49992615 232.247847,9.45826078 232.405502,9.42898197 C232.563157,9.39970316 232.705045,9.38055961 232.831169,9.37155074 C232.957293,9.36254188 233.058641,9.35803751 233.135216,9.35803751 C233.581155,9.35803751 233.993305,9.44024217 234.371677,9.60465395 C234.750049,9.76906573 235.076616,9.99315788 235.351386,10.2769371 C235.626156,10.5607164 235.84124,10.8940393 235.996643,11.2769161 C236.152046,11.6597928 236.229746,12.0674379 236.229746,12.4998634 C236.229746,12.9007578 236.16218,13.2892593 236.027047,13.6653794 C235.891915,14.0414995 235.688092,14.3759486 235.415574,14.6687367 C235.143056,14.9615248 234.797346,15.1968778 234.378433,15.3748029 C233.959521,15.552728 233.466293,15.6416892 232.898735,15.6416892 C232.520363,15.6416892 232.162266,15.5876368 231.824433,15.4795304 C231.486601,15.3714241 231.180304,15.2070148 230.905534,14.9862976 C230.630763,14.7655804 230.393158,14.4908141 230.192711,14.1619906 C229.992263,13.833167 229.840241,13.4480438 229.736639,13.0066095 L231.081206,13.0066095 C231.157781,13.2588577 231.259129,13.4829498 231.385253,13.6788926 C231.511377,13.8748354 231.655517,14.0392447 231.817677,14.1721255 C231.979836,14.3050063 232.15438,14.4063545 232.341314,14.4761732 C232.528248,14.5459919 232.718558,14.5809007 232.912248,14.5809007 C233.187018,14.5809007 233.446019,14.5279744 233.689259,14.4221202 C233.932498,14.3162661 234.145329,14.1698742 234.327759,13.9829403 C234.510188,13.7960063 234.655454,13.5752925 234.763561,13.320792 C234.871667,13.0662916 234.925719,12.7926515 234.925719,12.4998634 C234.925719,12.1980664 234.868289,11.921048 234.753426,11.6687997 C234.638563,11.4165515 234.48654,11.200342 234.297354,11.0201647 C234.108168,10.8399874 233.893085,10.7003521 233.652097,10.6012546 C233.41111,10.5021571 233.164496,10.4526091 232.912248,10.4526091 C232.768106,10.4526091 232.618336,10.4706266 232.462933,10.506662 C232.30753,10.5426975 232.155508,10.5967499 232.006862,10.6688208 C231.858215,10.7408917 231.716328,10.8276007 231.581195,10.9289504 C231.446062,11.0303002 231.326696,11.1440354 231.223094,11.2701595 L230.020417,11.2701595 Z" id="h5-copy" sketch:type="MSShapeGroup"></path>
            </g>
        </g>
    </g>
</svg>