<?xml version="1.0" encoding="UTF-8" standalone="no"?>
<svg width="24px" height="24px" viewBox="0 0 24 24" version="1.1" xmlns="http://www.w3.org/2000/svg" xmlns:xlink="http://www.w3.org/1999/xlink" xmlns:sketch="http://www.bohemiancoding.com/sketch/ns">
    <!-- Generator: Sketch 3.5.2 (25235) - http://www.bohemiancoding.com/sketch -->
    <title>Group Copy 14</title>
    <desc>Created with Sketch.</desc>
    <defs></defs>
    <g id="markdown" stroke="none" stroke-width="1" fill="none" fill-rule="evenodd" sketch:type="MSPage">
        <g id="markdownï¼icon-copy" sketch:type="MSArtboardGroup" transform="translate(-360.000000, -329.000000)">
            <g id="Group" sketch:type="MSLayerGroup" transform="translate(230.000000, 270.000000)">
                <g id="Group-7" transform="translate(0.000000, 59.000000)"></g>
            </g>
            <g id="Group-2-Copy-3" sketch:type="MSLayerGroup" transform="translate(238.000000, 330.000000)" fill="#398DEE">
                <path d="M128.304027,6 L128.304027,9.27020152 C128.578797,8.97741342 128.883968,8.77922137 129.219548,8.67561943 C129.555128,8.57201748 129.916603,8.52021729 130.303985,8.52021729 C130.641817,8.52021729 130.952618,8.57426967 131.236397,8.68237604 C131.520177,8.79048242 131.764538,8.93912645 131.96949,9.12831261 C132.174442,9.31749877 132.333221,9.54046483 132.445831,9.79721747 C132.558442,10.0539701 132.614747,10.3332407 132.614747,10.6350377 L132.614747,15.5133135 L131.324233,15.5133135 L131.324233,10.8039531 C131.324233,10.5967492 131.289325,10.4210789 131.219506,10.2769371 C131.149687,10.1327953 131.056222,10.0145557 130.939106,9.92221484 C130.821991,9.82987398 130.687986,9.7634346 130.537088,9.72289471 C130.386189,9.68235482 130.231915,9.66208518 130.07426,9.66208518 C129.862551,9.66208518 129.651972,9.70600273 129.442516,9.79383916 C129.23306,9.88167559 129.043877,10.0021674 128.874961,10.155318 C128.706044,10.3084687 128.568661,10.4886433 128.462807,10.6958472 C128.356953,10.9030511 128.304027,11.1260172 128.304027,11.3647521 L128.304027,15.5133135 L127,15.5133135 L127,6 L128.304027,6 Z M137.675746,15.5133135 L137.675746,8.58778344 C137.28386,9.01120007 136.823289,9.32988388 136.294018,9.54384442 C135.764747,9.75780495 135.175801,9.86478362 134.527163,9.86478362 L134.527163,8.63507974 C134.878509,8.63507974 135.201697,8.59454046 135.496737,8.51346067 C135.791778,8.43238089 136.055283,8.32652832 136.287261,8.19589978 C136.51924,8.06527124 136.721936,7.91437502 136.895357,7.7432066 C137.068777,7.57203817 137.214043,7.39636794 137.331158,7.21619065 C137.448273,7.03601336 137.534982,6.85809095 137.591288,6.68241809 C137.647593,6.50674523 137.675746,6.34684028 137.675746,6.20269844 L138.945989,6.20269844 L138.945989,15.5133135 L137.675746,15.5133135 Z" id="h1" sketch:type="MSShapeGroup"></path>
            </g>
        </g>
    </g>
</svg>