<?xml version="1.0" encoding="UTF-8" standalone="no"?>
<svg width="24px" height="24px" viewBox="0 0 24 24" version="1.1" xmlns="http://www.w3.org/2000/svg" xmlns:xlink="http://www.w3.org/1999/xlink" xmlns:sketch="http://www.bohemiancoding.com/sketch/ns">
    <!-- Generator: Sketch 3.5.2 (25235) - http://www.bohemiancoding.com/sketch -->
    <title>Group Copy 19</title>
    <desc>Created with Sketch.</desc>
    <defs></defs>
    <g id="markdown" stroke="none" stroke-width="1" fill="none" fill-rule="evenodd" sketch:type="MSPage">
        <g id="markdownï¼icon-copy" sketch:type="MSArtboardGroup" transform="translate(-480.000000, -270.000000)">
            <g id="Group-2" sketch:type="MSLayerGroup" transform="translate(238.000000, 271.000000)" fill="#959FB2">
                <path d="M248.304027,6 L248.304027,9.27020152 C248.578797,8.97741342 248.883968,8.77922137 249.219548,8.67561943 C249.555128,8.57201748 249.916603,8.52021729 250.303985,8.52021729 C250.641817,8.52021729 250.952618,8.57426967 251.236397,8.68237604 C251.520177,8.79048242 251.764538,8.93912645 251.96949,9.12831261 C252.174442,9.31749877 252.333221,9.54046483 252.445831,9.79721747 C252.558442,10.0539701 252.614747,10.3332407 252.614747,10.6350377 L252.614747,15.5133135 L251.324233,15.5133135 L251.324233,10.8039531 C251.324233,10.5967492 251.289325,10.4210789 251.219506,10.2769371 C251.149687,10.1327953 251.056222,10.0145557 250.939106,9.92221484 C250.821991,9.82987398 250.687986,9.7634346 250.537088,9.72289471 C250.386189,9.68235482 250.231915,9.66208518 250.07426,9.66208518 C249.862551,9.66208518 249.651972,9.70600273 249.442516,9.79383916 C249.23306,9.88167559 249.043877,10.0021674 248.874961,10.155318 C248.706044,10.3084687 248.568661,10.4886433 248.462807,10.6958472 C248.356953,10.9030511 248.304027,11.1260172 248.304027,11.3647521 L248.304027,15.5133135 L247,15.5133135 L247,6 L248.304027,6 Z M258.84464,8.62832312 C258.813109,8.46165913 258.7523,8.29724981 258.662211,8.13509025 C258.572123,7.97293069 258.458387,7.82766492 258.321002,7.6992886 C258.183617,7.57091228 258.023712,7.4661858 257.841283,7.38510602 C257.658853,7.30402623 257.459535,7.26348695 257.243322,7.26348695 C256.869454,7.26348695 256.551897,7.3592047 256.29064,7.55064308 C256.029382,7.74208145 255.813173,7.98982151 255.642005,8.2938707 C255.470836,8.59791988 255.341336,8.93687333 255.253499,9.31074121 C255.165663,9.68460909 255.10598,10.053967 255.074449,10.418826 C255.2276,10.2296399 255.395387,10.0719871 255.577817,9.94586299 C255.760246,9.81973889 255.944925,9.71951677 256.131859,9.64519364 C256.318793,9.57087051 256.50122,9.51907031 256.679145,9.4897915 C256.85707,9.46051269 257.018101,9.4458735 257.162243,9.4458735 C257.626199,9.4458735 258.042853,9.52582598 258.412217,9.68573333 C258.78158,9.84564067 259.095759,10.0674806 259.354764,10.3512599 C259.613769,10.6350391 259.813087,10.9694882 259.952725,11.3546172 C260.092362,11.7397461 260.16218,12.1552738 260.16218,12.6012126 C260.16218,13.0111159 260.093488,13.4007435 259.956103,13.7701069 C259.818718,14.1394704 259.621652,14.4626585 259.364899,14.7396811 C259.108147,15.0167037 258.795093,15.2362915 258.42573,15.3984511 C258.056366,15.5606106 257.639713,15.6416892 257.175756,15.6416892 C256.67126,15.6416892 256.212941,15.5504758 255.800785,15.3680463 C255.388629,15.1856168 255.037289,14.9153549 254.746753,14.5572525 C254.456217,14.1991502 254.232125,13.7532181 254.07447,13.2194428 C253.916815,12.6856676 253.837988,12.0674435 253.837988,11.3647521 C253.837988,10.4728745 253.917941,9.70262811 254.077848,9.05398985 C254.237756,8.4053516 254.465226,7.87045828 254.760266,7.44929386 C255.055307,7.02812943 255.410025,6.71507608 255.824433,6.51012441 C256.238841,6.30517274 256.70279,6.20269844 257.216296,6.20269844 C257.635208,6.20269844 258.011322,6.27026391 258.34465,6.40539688 C258.677978,6.54052985 258.964006,6.72070444 259.20274,6.94592606 C259.441475,7.17114768 259.635163,7.43014865 259.783809,7.72293675 C259.932456,8.01572485 260.033804,8.31751729 260.087857,8.62832312 L258.84464,8.62832312 Z M257.175756,14.5809007 C257.414491,14.5809007 257.636331,14.5291005 257.841283,14.4254985 C258.046234,14.3218966 258.224157,14.1811352 258.375055,14.0032101 C258.525954,13.8252851 258.644193,13.6158321 258.729777,13.374845 C258.815362,13.1338578 258.858153,12.8759829 258.858153,12.6012126 C258.858153,12.3354511 258.817614,12.0809545 258.736534,11.8377151 C258.655454,11.5944758 258.540593,11.3805184 258.391947,11.1958367 C258.2433,11.011155 258.064252,10.8647631 257.854796,10.7566568 C257.64534,10.6485504 257.414491,10.594498 257.162243,10.594498 C256.860446,10.594498 256.599193,10.6553069 256.378476,10.7769266 C256.157758,10.8985463 255.974205,11.055073 255.827811,11.2465113 C255.681417,11.4379497 255.572187,11.6507809 255.500116,11.8850114 C255.428045,12.1192419 255.39201,12.3489645 255.39201,12.5741861 C255.39201,12.8624698 255.441558,13.1293534 255.540655,13.374845 C255.639753,13.6203365 255.771505,13.8320417 255.935917,14.0099667 C256.100329,14.1878918 256.289512,14.3275271 256.503473,14.4288769 C256.717433,14.5302266 256.941526,14.5809007 257.175756,14.5809007 L257.175756,14.5809007 Z" id="h6-copy-2" sketch:type="MSShapeGroup"></path>
            </g>
            <g id="Group" sketch:type="MSLayerGroup" transform="translate(230.000000, 270.000000)">
                <g id="Group-10"></g>
            </g>
        </g>
    </g>
</svg>