<?xml version="1.0" encoding="UTF-8" standalone="no"?>
<svg width="24px" height="24px" viewBox="0 0 24 24" version="1.1" xmlns="http://www.w3.org/2000/svg" xmlns:xlink="http://www.w3.org/1999/xlink" xmlns:sketch="http://www.bohemiancoding.com/sketch/ns">
    <!-- Generator: Sketch 3.5.2 (25235) - http://www.bohemiancoding.com/sketch -->
    <title>Group Copy 16</title>
    <desc>Created with Sketch.</desc>
    <defs></defs>
    <g id="markdown" stroke="none" stroke-width="1" fill="none" fill-rule="evenodd" sketch:type="MSPage">
        <g id="markdownï¼icon-copy" sketch:type="MSArtboardGroup" transform="translate(-408.000000, -270.000000)">
            <g id="Group-2" sketch:type="MSLayerGroup" transform="translate(238.000000, 271.000000)" fill="#959FB2">
                <path d="M176.304027,6 L176.304027,9.27020152 C176.578797,8.97741342 176.883968,8.77922137 177.219548,8.67561943 C177.555128,8.57201748 177.916603,8.52021729 178.303985,8.52021729 C178.641817,8.52021729 178.952618,8.57426967 179.236397,8.68237604 C179.520177,8.79048242 179.764538,8.93912645 179.96949,9.12831261 C180.174442,9.31749877 180.333221,9.54046483 180.445831,9.79721747 C180.558442,10.0539701 180.614747,10.3332407 180.614747,10.6350377 L180.614747,15.5133135 L179.324233,15.5133135 L179.324233,10.8039531 C179.324233,10.5967492 179.289325,10.4210789 179.219506,10.2769371 C179.149687,10.1327953 179.056222,10.0145557 178.939106,9.92221484 C178.821991,9.82987398 178.687986,9.7634346 178.537088,9.72289471 C178.386189,9.68235482 178.231915,9.66208518 178.07426,9.66208518 C177.862551,9.66208518 177.651972,9.70600273 177.442516,9.79383916 C177.23306,9.88167559 177.043877,10.0021674 176.874961,10.155318 C176.706044,10.3084687 176.568661,10.4886433 176.462807,10.6958472 C176.356953,10.9030511 176.304027,11.1260172 176.304027,11.3647521 L176.304027,15.5133135 L175,15.5133135 L175,6 L176.304027,6 Z M182.01366,9.06074647 C182.081227,8.68687858 182.190458,8.32878158 182.341356,7.98644473 C182.492255,7.64410787 182.690447,7.34118934 182.935938,7.07768005 C183.18143,6.81417076 183.478718,6.60471779 183.827811,6.44931488 C184.176905,6.29391196 184.581172,6.21621167 185.040624,6.21621167 C185.468545,6.21621167 185.853668,6.2770206 186.196005,6.39864027 C186.538342,6.52025994 186.828873,6.68917362 187.067608,6.90538637 C187.306343,7.12159912 187.48877,7.37834792 187.614894,7.67564045 C187.741018,7.97293298 187.804079,8.29724725 187.804079,8.64859297 C187.804079,9.05399188 187.707235,9.42447588 187.513545,9.76005609 C187.319854,10.0956363 187.04734,10.3782852 186.695994,10.6080112 C186.930225,10.7116132 187.14193,10.8354832 187.331116,10.979625 C187.520302,11.1237669 187.681333,11.2904284 187.814214,11.4796145 C187.947095,11.6688007 188.049569,11.8838841 188.12164,12.1248712 C188.193711,12.3658584 188.229746,12.6349942 188.229746,12.9322867 C188.229746,13.3737211 188.146415,13.7633486 187.979751,14.101181 C187.813087,14.4390135 187.588995,14.7216624 187.307468,14.9491362 C187.025941,15.17661 186.698248,15.348902 186.324381,15.4660172 C185.950513,15.5831325 185.554129,15.6416892 185.135216,15.6416892 C184.693782,15.6416892 184.287263,15.5729976 183.915647,15.4356124 C183.544032,15.2982273 183.215213,15.0989091 182.929182,14.837652 C182.64315,14.576395 182.399915,14.2565851 182.199467,13.8782128 C181.99902,13.4998404 181.846998,13.0696736 181.743396,12.5876993 L183.108232,12.5876993 C183.175798,12.9705761 183.281651,13.2892599 183.425793,13.5437603 C183.569935,13.7982608 183.73547,14.0020833 183.922404,14.155234 C184.109338,14.3083847 184.30753,14.4176155 184.516986,14.4829298 C184.726442,14.548244 184.932517,14.5809007 185.135216,14.5809007 C185.351429,14.5809007 185.566513,14.5414875 185.780473,14.4626599 C185.994434,14.3838324 186.185869,14.2734754 186.354785,14.1315858 C186.523702,13.9896962 186.661085,13.8174042 186.766939,13.6147048 C186.872793,13.4120053 186.925719,13.1845349 186.925719,12.9322867 C186.925719,12.6890474 186.881802,12.462703 186.793965,12.2532469 C186.706129,12.0437908 186.580007,11.861364 186.415595,11.7059611 C186.251183,11.5505582 186.052991,11.4278143 185.821013,11.3377256 C185.589035,11.247637 185.328907,11.2025933 185.040624,11.2025933 L184.29064,11.2025933 L184.29064,10.0539688 L185.040624,10.0539688 C185.31089,10.0539688 185.539486,10.0156817 185.72642,9.93910638 C185.913354,9.86253103 186.06425,9.76230891 186.179113,9.63843702 C186.293976,9.51456513 186.377307,9.37380374 186.429108,9.2161486 C186.480909,9.05849347 186.506809,8.89633634 186.506809,8.72967234 C186.506809,8.27472468 186.375057,7.91887986 186.111547,7.66212722 C185.848038,7.40537458 185.491067,7.27700018 185.040624,7.27700018 C184.783871,7.27700018 184.557527,7.32880038 184.361584,7.43240232 C184.165641,7.53600426 183.996728,7.67113521 183.854838,7.8377992 C183.712948,8.0044632 183.600339,8.19477261 183.517007,8.40873315 C183.433675,8.62269368 183.378497,8.84002928 183.35147,9.06074647 L182.01366,9.06074647 Z" id="h3-copy-2" sketch:type="MSShapeGroup"></path>
            </g>
            <g id="Group" sketch:type="MSLayerGroup" transform="translate(230.000000, 270.000000)">
                <g id="Group-10"></g>
            </g>
        </g>
    </g>
</svg>