<?xml version="1.0" encoding="UTF-8" standalone="no"?>
<svg width="24px" height="24px" viewBox="0 0 24 24" version="1.1" xmlns="http://www.w3.org/2000/svg" xmlns:xlink="http://www.w3.org/1999/xlink">
    <!-- Generator: Sketch 3.6.1 (26313) - http://www.bohemiancoding.com/sketch -->
    <title>Group Copy 29</title>
    <desc>Created with Sketch.</desc>
    <defs></defs>
    <g id="markdown" stroke="none" stroke-width="1" fill="none" fill-rule="evenodd">
        <g id="markdownï¼icon-copy" transform="translate(-692.000000, -329.000000)">
            <g id="Group" transform="translate(230.000000, 270.000000)">
                <g id="Group-7" transform="translate(0.000000, 59.000000)"></g>
            </g>
            <g id="Group-2-Copy-3" transform="translate(238.000000, 330.000000)" fill="#398DEE">
                <g id="Group-Copy" transform="translate(460.000000, 6.000000)">
                    <path d="M1,0.995397568 L1,0.995397568 L1,9.00460243 C1,8.99635855 1.00362761,9 0.998502329,9 L12.0014977,9 C12.001144,9 12,9.00114006 12,9.00460243 L12,0.995397568 C12,1.00364145 11.9963724,1 12.0014977,1 L0.998502329,1 C0.998856031,1 1,0.998859939 1,0.995397568 L1,0.995397568 Z M0,0.995397568 C0,0.445654671 0.447489426,0 0.998502329,0 L12.0014977,0 C12.5529553,0 13,0.455664396 13,0.995397568 L13,9.00460243 C13,9.55434533 12.5525106,10 12.0014977,10 L0.998502329,10 C0.44704472,10 0,9.5443356 0,9.00460243 L0,0.995397568 L0,0.995397568 Z" id="Rectangle-4339"></path>
                    <circle id="Oval-601" cx="4" cy="3" r="1"></circle>
                    <path d="M2.99754465,8 C2.44661595,8 2.30693398,7.68027711 2.69411621,7.27696228 L4.90588379,4.97303772 C5.28923359,4.57371501 5.8655962,4.61888361 6.18938732,5.0685935 L7.4,6.75 L8.76427021,3.9077704 C9.00491713,3.40642265 9.35346699,3.42629719 9.53856623,3.94046175 L10.6614338,7.05953825 C10.8484187,7.57894093 10.5536886,8 10.0024554,8 L2.99754465,8 Z" id="Path-4488"></path>
                </g>
            </g>
        </g>
    </g>
</svg>