<?xml version="1.0" encoding="UTF-8" standalone="no"?>
<svg width="24px" height="24px" viewBox="0 0 24 24" version="1.1" xmlns="http://www.w3.org/2000/svg" xmlns:xlink="http://www.w3.org/1999/xlink" xmlns:sketch="http://www.bohemiancoding.com/sketch/ns">
    <!-- Generator: Sketch 3.5.2 (25235) - http://www.bohemiancoding.com/sketch -->
    <title>Group Copy 28</title>
    <desc>Created with Sketch.</desc>
    <defs></defs>
    <g id="markdown" stroke="none" stroke-width="1" fill="none" fill-rule="evenodd" sketch:type="MSPage">
        <g id="markdown－icon-copy" sketch:type="MSArtboardGroup" transform="translate(-668.000000, -270.000000)">
            <g id="Group-2" sketch:type="MSLayerGroup" transform="translate(238.000000, 271.000000)" fill="#959FB0">
                <g id="Rectangle-1536-+-Rectangle-1540-Copy-2" transform="translate(442.500000, 11.500000) rotate(-315.000000) translate(-442.500000, -11.500000) translate(435.000000, 4.000000)" sketch:type="MSShapeGroup">
                    <g id="iconfont-cubanlianjie" transform="translate(-0.000000, 0.000000)">
                        <g id="图形" transform="translate(-0.000000, -0.000000)">
                            <path d="M13.849351,5.86103055 L11.3930528,8.31734357 C10.7901713,8.9202287 9.81251524,8.9202287 9.20963374,8.31734357 L8.9367546,8.04446279 L9.75577798,7.22543446 C10.0572187,7.52687703 10.5458538,7.52687703 10.8472945,7.22543446 L12.7578345,5.31526899 C13.0592752,5.01382643 13.0592752,4.52480245 12.7578345,4.22335988 L10.8472945,2.31319441 C10.5458538,2.01175185 10.0572187,2.01175185 9.75577798,2.31319441 L7.84523806,4.22335988 C7.54379731,4.52480245 7.54379731,5.01382643 7.84523806,5.31526899 L7.02660065,6.13391133 L6.75372151,5.86103055 C6.15084002,5.25814542 6.15084002,4.28048344 6.75372151,3.67759831 L9.21001972,1.22167126 C9.81290121,0.618786136 10.7905573,0.618786136 11.3934388,1.22167126 L13.849737,3.67759831 C14.4522325,4.28048344 14.4522325,5.25814542 13.849351,5.86103055 L13.849351,5.86103055 Z M4.25836939,10.1620473 L10.0574232,4.36299354 L10.7823049,5.08787527 L4.98325112,10.8869291 L4.25836939,10.1620473 Z M5.19024843,7.97028225 C4.8888204,7.66885059 4.40020598,7.66885059 4.098392,7.97028225 L2.18793272,9.88037861 C1.8865047,10.1818103 1.8865047,10.6708166 2.18793272,10.9718623 L4.098392,12.8823446 C4.39982002,13.1833903 4.88843445,13.1833903 5.19024843,12.8823446 L7.1007077,10.9718623 C7.40213572,10.6708166 7.40213572,10.1818103 7.1007077,9.88037861 L7.91931055,9.06176589 L8.19256411,9.3346368 C8.79542016,9.93750012 8.79542016,10.9147408 8.19256411,11.5176041 L5.73636959,13.9742142 C5.13351355,14.5770775 4.15589874,14.5770775 3.5530427,13.9742142 L1.09684818,11.5176041 C0.493992134,10.9147408 0.493992134,9.93750012 1.09684818,9.3346368 L3.5530427,6.87879861 C4.15589874,6.27554935 5.13351355,6.27554935 5.73636959,6.87879861 L6.00962316,7.15128356 L5.19024843,7.97028225 L5.19024843,7.97028225 L5.19024843,7.97028225 Z" id="Shape"></path>
                        </g>
                    </g>
                </g>
            </g>
            <g id="Group" sketch:type="MSLayerGroup" transform="translate(230.000000, 270.000000)">
                <g id="Group-10"></g>
            </g>
        </g>
    </g>
</svg>