<?xml version="1.0" encoding="UTF-8" standalone="no"?>
<svg width="24px" height="24px" viewBox="0 0 24 24" version="1.1" xmlns="http://www.w3.org/2000/svg" xmlns:xlink="http://www.w3.org/1999/xlink" xmlns:sketch="http://www.bohemiancoding.com/sketch/ns">
    <!-- Generator: Sketch 3.4.4 (17249) - http://www.bohemiancoding.com/sketch -->
    <title>Slice 1</title>
    <desc>Created with Sketch.</desc>
    <defs></defs>
    <g id="Page-1" stroke="none" stroke-width="1" fill="none" fill-rule="evenodd" sketch:type="MSPage">
        <g id="ol" sketch:type="MSLayerGroup" transform="translate(-356.000000, 0.000000)">
            <g id="markdown" sketch:type="MSShapeGroup">
                <g id="markdownï¼icon-copy">
                    <g id="Group-2" transform="translate(362.000000, 6.000000)">
                        <g id="Group-5">
                            <g id="Group-5-Copy-2" transform="translate(4.000000, 2.000000)" fill="#959FB0">
                                <g id="Group-4-Copy">
                                    <g id="Group-3-Copy-2" transform="translate(4.500000, 4.500000) rotate(180.000000) translate(-4.500000, -4.500000) translate(0.000000, -0.000000)">
                                        <rect id="Rectangle-4343" x="0" y="8" width="8.96520756" height="1"></rect>
                                        <rect id="Rectangle-4343-Copy" x="-8.8817842e-16" y="-1.77635684e-15" width="8.96520756" height="1"></rect>
                                        <rect id="Rectangle-4343-Copy-2" x="-8.8817842e-16" y="4" width="8.96520756" height="1"></rect>
                                    </g>
                                </g>
                            </g>
                            <g id="2" transform="translate(0.000000, 4.000000)" fill="#398DEE">
                                <path d="M2.80517578,3.49951172 L2.80517578,4 L0.285644531,4 L0.285644531,3.32128906 C0.285644531,2.9697248 0.348713562,2.73616594 0.474853516,2.62060547 C0.600993469,2.505045 0.900876538,2.40494834 1.37451172,2.3203125 C1.76676628,2.25032517 1.99910446,2.18644235 2.0715332,2.12866211 C2.14396195,2.07088187 2.18017578,1.92155068 2.18017578,1.68066406 C2.18017578,1.44954312 2.14396195,1.30306021 2.0715332,1.24121094 C1.99910446,1.17936167 1.82698704,1.1484375 1.55517578,1.1484375 C1.27522646,1.1484375 1.09863318,1.17976857 1.02539062,1.24243164 C0.952148071,1.30509471 0.915527344,1.45768108 0.915527344,1.70019531 L0.915527344,1.84179688 L0.295410156,1.84179688 L0.295410156,1.70263672 C0.295410156,1.28434036 0.381672314,1.00276765 0.554199219,0.857910156 C0.726726123,0.713052661 1.06119543,0.640625 1.55761719,0.640625 C2.04264565,0.640625 2.37182531,0.713866455 2.54516602,0.860351562 C2.71850673,1.00683667 2.80517578,1.2851542 2.80517578,1.6953125 C2.80517578,2.08268423 2.73925847,2.3418776 2.60742188,2.47290039 C2.47558528,2.60392318 2.17204014,2.71337847 1.69677734,2.80126953 C1.30452278,2.87288447 1.07666047,2.93351212 1.01318359,2.9831543 C0.949706714,3.03279647 0.91796875,3.17480352 0.91796875,3.40917969 L0.91796875,3.49951172 L2.80517578,3.49951172 Z"></path>
                            </g>
                            <g id="1" fill="#398DEE">
                                <path d="M2.20947266,0.667480469 L2.20947266,4 L1.57714844,4 L1.57714844,1.21923828 L0.710449219,2.07861328 L0.334472656,1.67089844 L1.41113281,0.667480469 L2.20947266,0.667480469 Z"></path>
                            </g>
                            <g id="3" transform="translate(0.000000, 9.000000)" fill="#398DEE">
                                <path d="M1.29150391,2.04248047 L1.29150391,1.55175781 L1.39892578,1.55419922 C1.75374526,1.55419922 1.96980756,1.53304058 2.04711914,1.49072266 C2.12443073,1.44840474 2.16308594,1.32877703 2.16308594,1.13183594 C2.16308594,0.912108276 2.12849969,0.776611584 2.05932617,0.725341797 C1.99015265,0.674072009 1.80745591,0.6484375 1.51123047,0.6484375 C1.24267444,0.6484375 1.0734053,0.676513391 1.00341797,0.732666016 C0.93343064,0.78881864 0.8984375,0.92594292 0.8984375,1.14404297 L0.8984375,1.24169922 L0.288085938,1.24169922 L0.288085938,1.1171875 C0.288085938,0.728188159 0.370279126,0.468180994 0.534667969,0.337158203 C0.699056812,0.206135413 1.0237606,0.140625 1.50878906,0.140625 C1.99707275,0.140625 2.33235586,0.20247334 2.51464844,0.326171875 C2.69694102,0.44987041 2.78808594,0.678546509 2.78808594,1.01220703 C2.78808594,1.47282131 2.60335471,1.73160779 2.23388672,1.78857422 L2.23388672,1.80566406 C2.63590696,1.84960959 2.83691406,2.09212019 2.83691406,2.53320312 C2.83691406,2.92545769 2.74821052,3.18912693 2.57080078,3.32421875 C2.39339104,3.45931057 2.04752861,3.52685547 1.53320312,3.52685547 C1.02864331,3.52685547 0.685629163,3.45931057 0.504150391,3.32421875 C0.322671619,3.18912693 0.231933594,2.93359563 0.231933594,2.55761719 L0.234375,2.37207031 L0.852050781,2.37207031 C0.856933618,2.44531287 0.859375,2.48925774 0.859375,2.50390625 C0.859375,2.73339958 0.898030212,2.87662732 0.975341797,2.93359375 C1.05265338,2.99056018 1.24674324,3.01904297 1.55761719,3.01904297 C1.84244934,3.01904297 2.0227047,2.9881188 2.09838867,2.92626953 C2.17407264,2.86442026 2.21191406,2.71630977 2.21191406,2.48193359 C2.21191406,2.30289624 2.17732782,2.18489612 2.1081543,2.12792969 C2.03898077,2.07096326 1.89534614,2.04248047 1.67724609,2.04248047 L1.40136719,2.04248047 L1.29150391,2.04248047 Z"></path>
                            </g>
                        </g>
                    </g>
                </g>
            </g>
        </g>
    </g>
</svg>