<?xml version="1.0" encoding="UTF-8" standalone="no"?>
<svg width="24px" height="24px" viewBox="0 0 24 24" version="1.1" xmlns="http://www.w3.org/2000/svg" xmlns:xlink="http://www.w3.org/1999/xlink" xmlns:sketch="http://www.bohemiancoding.com/sketch/ns">
    <!-- Generator: Sketch 3.5.2 (25235) - http://www.bohemiancoding.com/sketch -->
    <title>Group Copy 12</title>
    <desc>Created with Sketch.</desc>
    <defs></defs>
    <g id="markdown" stroke="none" stroke-width="1" fill="none" fill-rule="evenodd" sketch:type="MSPage">
        <g id="markdown－icon-copy" sketch:type="MSArtboardGroup" transform="translate(-326.000000, -329.000000)">
            <g id="Group" sketch:type="MSLayerGroup" transform="translate(230.000000, 270.000000)">
                <g id="Group-7" transform="translate(0.000000, 59.000000)"></g>
            </g>
            <g id="Group-2-Copy-3" sketch:type="MSLayerGroup" transform="translate(238.000000, 330.000000)">
                <g id="iconfont-bi-copy-2" transform="translate(95.000000, 6.000000)" sketch:type="MSShapeGroup">
                    <g id="图形">
                        <path d="M10,3.32195014 L6.68252239,0.0266485683 L6,0.704302906 L9.31747761,4 L10,3.32195014 Z M7.22321407,4.19438135 L8,4.96983558 L4.97360591,7.99204563 L2.79599917,5.96560552 L4.83620038,3.98978667 L4.65301872,3.80159693 L2.55724186,5.8308306 L2,5.02220041 C2,5.02220041 4.01746745,3.00729096 5.02605651,2 L5.80247592,2.77545423 L7.22321407,4.19438135 Z M1.49985538,6 L1,8.19100355 L1.80862672,9 L4,8.50136789 L1.49985538,6 L1.49985538,6 Z" id="Shape" fill="#398DEE"></path>
                        <path d="M1,9.68146765 L-2.77555756e-16,10 L0.318532351,9 L1,9.68146765 Z" id="Shape" fill="#959FB1"></path>
                    </g>
                    <rect id="Rectangle-4499" fill="#FFCF00" x="0" y="10" width="10" height="2"></rect>
                </g>
            </g>
        </g>
    </g>
</svg>