<?xml version="1.0" encoding="UTF-8" standalone="no"?>
<svg width="24px" height="24px" viewBox="0 0 24 24" version="1.1" xmlns="http://www.w3.org/2000/svg" xmlns:xlink="http://www.w3.org/1999/xlink">
    <!-- Generator: Sketch 3.6.1 (26313) - http://www.bohemiancoding.com/sketch -->
    <title>Group Copy 22</title>
    <desc>Created with Sketch.</desc>
    <defs></defs>
    <g id="markdown" stroke="none" stroke-width="1" fill="none" fill-rule="evenodd">
        <g id="markdownï¼icon-copy" transform="translate(-538.000000, -329.000000)">
            <g id="Group" transform="translate(230.000000, 270.000000)">
                <g id="Group-7" transform="translate(0.000000, 59.000000)"></g>
            </g>
            <g id="Group-2-Copy-3" transform="translate(238.000000, 330.000000)" fill="#398DEE">
                <g id="Group-2-Copy-2" transform="translate(306.000000, 6.000000)">
                    <rect id="Rectangle-4337" x="0" y="5" width="5" height="5"></rect>
                    <path d="M5,0.5 L5,0.5 L5,0 L2.5,0 C1.10966206,0 0,1.12345203 0,2.50930035 L0,5.49069965 C0,6.88763428 1.11928813,8 2.5,8 C3.89033794,8 5,6.87654797 5,5.49069965 L4,5.49069965 C4,6.32903142 3.3332962,7 2.5,7 C1.66789357,7 1,6.33166761 1,5.49069965 L1,2.50930035 C1,1.67096858 1.6667038,1 2.5,1 L5,1 L5,0.5 Z" id="Rectangle-4337-Copy"></path>
                    <g id="Group-2-Copy" transform="translate(7.000000, 0.000000)">
                        <rect id="Rectangle-4337" x="0" y="5" width="5" height="5"></rect>
                        <path d="M5,0.5 L5,0.5 L5,0 L2.5,0 C1.10966206,0 0,1.12345203 0,2.50930035 L0,5.49069965 C0,6.88763428 1.11928813,8 2.5,8 C3.89033794,8 5,6.87654797 5,5.49069965 L4,5.49069965 C4,6.32903142 3.3332962,7 2.5,7 C1.66789357,7 1,6.33166761 1,5.49069965 L1,2.50930035 C1,1.67096858 1.6667038,1 2.5,1 L5,1 L5,0.5 Z" id="Rectangle-4337-Copy"></path>
                    </g>
                </g>
            </g>
        </g>
    </g>
</svg>