<?xml version="1.0" encoding="UTF-8" standalone="no"?>
<svg width="24px" height="24px" viewBox="0 0 24 24" version="1.1" xmlns="http://www.w3.org/2000/svg" xmlns:xlink="http://www.w3.org/1999/xlink" xmlns:sketch="http://www.bohemiancoding.com/sketch/ns">
    <!-- Generator: Sketch 3.5.2 (25235) - http://www.bohemiancoding.com/sketch -->
    <title>Group Copy 10</title>
    <desc>Created with Sketch.</desc>
    <defs></defs>
    <g id="markdown" stroke="none" stroke-width="1" fill="none" fill-rule="evenodd" sketch:type="MSPage">
        <g id="markdownï¼icon-copy" sketch:type="MSArtboardGroup" transform="translate(-278.000000, -270.000000)">
            <g id="Group-2" sketch:type="MSLayerGroup" transform="translate(238.000000, 271.000000)" fill="#959FB2">
                <g id="Group-4" transform="translate(46.000000, 5.000000)" sketch:type="MSShapeGroup">
                    <rect id="Rectangle-376" x="0" y="6" width="12" height="1"></rect>
                    <path d="M9.2795161,6 C9.19117317,5.92441977 9.09900121,5.85508651 9.003,5.792 C8.6763317,5.57733226 8.34733499,5.42100049 8.016,5.323 C7.68466501,5.22499951 7.4256676,5.15733352 7.239,5.12 C6.61366354,4.96133254 6.10733527,4.83066718 5.72,4.728 C5.33266473,4.62533282 5.02933443,4.52266718 4.81,4.42 C4.59066557,4.31733282 4.44366704,4.20533394 4.369,4.084 C4.29433296,3.96266606 4.257,3.80400098 4.257,3.608 C4.257,3.39333226 4.3036662,3.2160007 4.397,3.076 C4.4903338,2.9359993 4.60933261,2.8193338 4.754,2.726 C4.89866739,2.6326662 5.05966578,2.56733352 5.237,2.53 C5.41433422,2.49266648 5.59166578,2.474 5.769,2.474 C6.03966802,2.474 6.28933219,2.4973331 6.518,2.544 C6.74666781,2.5906669 6.94966578,2.66999944 7.127,2.782 C7.30433422,2.89400056 7.44666613,3.04799902 7.554,3.244 C7.66133387,3.44000098 7.72433324,3.68733184 7.743,3.986 L9.871,3.986 C9.871,3.40733044 9.76133443,2.91500203 9.542,2.509 C9.32266557,2.10299797 9.0263352,1.76933464 8.653,1.508 C8.2796648,1.24666536 7.85266907,1.05766725 7.372,0.941 C6.89133093,0.82433275 6.38966928,0.766 5.867,0.766 C5.41899776,0.766 4.97100224,0.82666606 4.523,0.948 C4.07499776,1.06933394 3.67366844,1.25599874 3.319,1.508 C2.96433156,1.76000126 2.67733443,2.07499811 2.458,2.453 C2.23866557,2.83100189 2.129,3.2766641 2.129,3.79 C2.129,4.24733562 2.21533247,4.63699839 2.388,4.959 C2.56066753,5.28100161 2.7869986,5.54933226 3.067,5.764 C3.17769561,5.84886663 3.29422546,5.92753319 3.41659013,6 L9.2795161,6 Z M10.2068696,8 C10.2069565,8.01063001 10.207,8.02129668 10.207,8.032 C10.207,8.48933562 10.1183342,8.91399804 9.941,9.306 C9.76366578,9.69800196 9.50000175,10.0363319 9.15,10.321 C8.79999825,10.6056681 8.36600259,10.8273325 7.848,10.986 C7.32999741,11.1446675 6.73033674,11.224 6.049,11.224 C5.49833058,11.224 4.96400259,11.156334 4.446,11.021 C3.92799741,10.885666 3.47066865,10.6733348 3.074,10.384 C2.67733135,10.0946652 2.3623345,9.72600224 2.129,9.278 C1.8956655,8.82999776 1.78366662,8.29800308 1.793,7.682 L3.921,7.682 C3.921,8.01800168 3.98166606,8.3026655 4.103,8.536 C4.22433394,8.7693345 4.38533233,8.95833261 4.586,9.103 C4.78666767,9.24766739 5.02233198,9.35499965 5.293,9.425 C5.56366802,9.49500035 5.84366522,9.53 6.133,9.53 C6.32900098,9.53 6.53899888,9.51366683 6.763,9.481 C6.98700112,9.44833317 7.19699902,9.3853338 7.393,9.292 C7.58900098,9.1986662 7.75233268,9.07033415 7.883,8.907 C8.01366732,8.74366585 8.079,8.53600126 8.079,8.284 C8.079,8.18205014 8.06675176,8.08738359 8.04225515,8 L10.2068709,8 Z" id="S"></path>
                </g>
            </g>
            <g id="Group" sketch:type="MSLayerGroup" transform="translate(230.000000, 270.000000)">
                <g id="Group-10"></g>
            </g>
        </g>
    </g>
</svg>