<?xml version="1.0" encoding="UTF-8" standalone="no"?>
<svg width="24px" height="24px" viewBox="0 0 24 24" version="1.1" xmlns="http://www.w3.org/2000/svg" xmlns:xlink="http://www.w3.org/1999/xlink">
    <!-- Generator: Sketch 3.6.1 (26313) - http://www.bohemiancoding.com/sketch -->
    <title>Group Copy 31</title>
    <desc>Created with Sketch.</desc>
    <defs></defs>
    <g id="markdown" stroke="none" stroke-width="1" fill="none" fill-rule="evenodd">
        <g id="markdownï¼icon-copy" transform="translate(-740.000000, -270.000000)">
            <g id="Group-2" transform="translate(238.000000, 271.000000)">
                <g id="Group-7-Copy" transform="translate(508.000000, 6.000000)">
                    <rect id="Rectangle-4503" fill="#959FB2" x="4" y="1" width="1" height="8"></rect>
                    <rect id="Rectangle-4503-Copy" fill="#959FB2" x="8" y="1" width="1" height="8"></rect>
                    <rect id="Rectangle-4504" fill="#959FB2" x="1" y="3" width="11" height="1"></rect>
                    <rect id="Rectangle-4504-Copy" fill="#959FB2" x="1" y="6" width="11" height="1"></rect>
                    <path d="M0,1 L1,1 L1,9 L0,9 L13,9 L12,9 L12,1 L13,1 L0,1 Z M0,0 L13,0 L13,10 L0,10 L0,0 L0,0 Z" id="Rectangle-4502" fill="#959FB2"></path>
                    <rect id="Rectangle-4507" fill="#E4F2FF" x="1" y="7" width="3" height="2"></rect>
                    <rect id="Rectangle-4507-Copy" fill="#E4F2FF" x="5" y="7" width="3" height="2"></rect>
                    <rect id="Rectangle-4507-Copy-2" fill="#E4F2FF" x="9" y="7" width="3" height="2"></rect>
                    <rect id="Rectangle-4507-Copy-3" fill="#E4F2FF" x="9" y="4" width="3" height="2"></rect>
                    <rect id="Rectangle-4507-Copy-4" fill="#E4F2FF" x="9" y="1" width="3" height="2"></rect>
                </g>
            </g>
            <g id="Group" transform="translate(230.000000, 270.000000)">
                <g id="Group-10"></g>
            </g>
        </g>
    </g>
</svg>