<?xml version="1.0" encoding="UTF-8" standalone="no"?>
<svg width="24px" height="24px" viewBox="0 0 24 24" version="1.1" xmlns="http://www.w3.org/2000/svg" xmlns:xlink="http://www.w3.org/1999/xlink" xmlns:sketch="http://www.bohemiancoding.com/sketch/ns">
    <!-- Generator: Sketch 3.5.2 (25235) - http://www.bohemiancoding.com/sketch -->
    <title>Group Copy 23</title>
    <desc>Created with Sketch.</desc>
    <defs></defs>
    <g id="markdown" stroke="none" stroke-width="1" fill="none" fill-rule="evenodd" sketch:type="MSPage">
        <g id="markdownï¼icon-copy" sketch:type="MSArtboardGroup" transform="translate(-562.000000, -270.000000)">
            <g id="Group-2" sketch:type="MSLayerGroup" transform="translate(238.000000, 271.000000)">
                <g id="Group-5-Copy" transform="translate(330.000000, 6.000000)" sketch:type="MSShapeGroup">
                    <g id="Group-4-Copy" transform="translate(4.000000, 1.000000)" fill="#959FB0">
                        <g id="Group-3-Copy-2" transform="translate(4.500000, 4.500000) rotate(-180.000000) translate(-4.500000, -4.500000) ">
                            <rect id="Rectangle-4343" x="0" y="8" width="8.96520756" height="1"></rect>
                            <rect id="Rectangle-4343-Copy" x="-8.8817842e-16" y="-1.77635684e-15" width="8.96520756" height="1"></rect>
                            <rect id="Rectangle-4343-Copy-2" x="-8.8817842e-16" y="4" width="8.96520756" height="1"></rect>
                        </g>
                    </g>
                    <rect id="Rectangle-4349" fill="#398DEE" x="1" y="0" width="1" height="3"></rect>
                    <rect id="Rectangle-4349-Copy-3" fill="#398DEE" transform="translate(1.500000, 1.500000) rotate(-90.000000) translate(-1.500000, -1.500000) " x="1" y="0" width="1" height="3"></rect>
                    <rect id="Rectangle-4349-Copy-4" fill="#398DEE" transform="translate(1.500000, 5.500000) rotate(-90.000000) translate(-1.500000, -5.500000) " x="1" y="4" width="1" height="3"></rect>
                    <rect id="Rectangle-4349-Copy-5" fill="#398DEE" transform="translate(1.500000, 9.500000) rotate(-90.000000) translate(-1.500000, -9.500000) " x="1" y="8" width="1" height="3"></rect>
                    <rect id="Rectangle-4349-Copy" fill="#398DEE" x="1" y="4" width="1" height="3"></rect>
                    <rect id="Rectangle-4349-Copy-2" fill="#398DEE" x="1" y="8" width="1" height="3"></rect>
                </g>
            </g>
            <g id="Group" sketch:type="MSLayerGroup" transform="translate(230.000000, 270.000000)">
                <g id="Group-10"></g>
            </g>
        </g>
    </g>
</svg>