<?xml version="1.0" encoding="UTF-8" standalone="no"?>
<svg width="24px" height="24px" viewBox="0 0 24 24" version="1.1" xmlns="http://www.w3.org/2000/svg" xmlns:xlink="http://www.w3.org/1999/xlink">
    <!-- Generator: Sketch 3.6.1 (26313) - http://www.bohemiancoding.com/sketch -->
    <title>Group Copy 25</title>
    <desc>Created with Sketch.</desc>
    <defs></defs>
    <g id="markdown" stroke="none" stroke-width="1" fill="none" fill-rule="evenodd">
        <g id="markdownï¼icon-copy" transform="translate(-610.000000, -329.000000)">
            <g id="Group" transform="translate(230.000000, 270.000000)">
                <g id="Group-7" transform="translate(0.000000, 59.000000)"></g>
            </g>
            <g id="Group-2-Copy-3" transform="translate(238.000000, 330.000000)" fill="#398DEE">
                <path d="M380,6.99539757 L380,6.99539757 L380,15.0046024 C380,14.9970515 380.002928,15 379.995398,15 L388.004602,15 C387.997052,15 388,14.9970719 388,15.0046024 L388,6.99539757 C388,7.00294846 387.997072,7 388.004602,7 L379.995398,7 C380.002948,7 380,7.00292812 380,6.99539757 L380,6.99539757 Z M379,6.99539757 C379,6.44565467 379.455664,6 379.995398,6 L388.004602,6 C388.554345,6 389,6.4556644 389,6.99539757 L389,15.0046024 C389,15.5543453 388.544336,16 388.004602,16 L379.995398,16 C379.445655,16 379,15.5443356 379,15.0046024 L379,6.99539757 L379,6.99539757 Z" id="Rectangle-4340-Copy-2"></path>
            </g>
        </g>
    </g>
</svg>