<?xml version="1.0" encoding="UTF-8" standalone="no"?>
<svg width="24px" height="24px" viewBox="0 0 24 24" version="1.1" xmlns="http://www.w3.org/2000/svg" xmlns:xlink="http://www.w3.org/1999/xlink" xmlns:sketch="http://www.bohemiancoding.com/sketch/ns">
    <!-- Generator: Sketch 3.5.2 (25235) - http://www.bohemiancoding.com/sketch -->
    <title>Group Copy 11</title>
    <desc>Created with Sketch.</desc>
    <defs></defs>
    <g id="markdown" stroke="none" stroke-width="1" fill="none" fill-rule="evenodd" sketch:type="MSPage">
        <g id="markdownï¼icon-copy" sketch:type="MSArtboardGroup" transform="translate(-302.000000, -270.000000)">
            <g id="Group-2" sketch:type="MSLayerGroup" transform="translate(238.000000, 271.000000)" fill="#959FB2">
                <g id="Page-1-Copy" transform="translate(71.000000, 6.000000)" sketch:type="MSShapeGroup">
                    <path d="M7,0.3938 L7,5.1118 C7,5.7508 6.482,6.5258 5.844,6.5258 L4.156,6.5258 C3.518,6.5258 3,5.7508 3,5.1118 L3,0.3938 L1,0.3938 L1,5.3188 C1,6.8088 2.208,8.0168 3.698,8.0168 L6.302,8.0168 C7.792,8.0168 9,6.8088 9,5.3188 L9,0.3938 L7,0.3938 L7,0.3938 Z" id="Fill-1"></path>
                    <path d="M10,10 L1.13686838e-13,10 L1.13686838e-13,9 L10,9 L10,10 L10,10 Z" id="Fill-2"></path>
                </g>
            </g>
            <g id="Group" sketch:type="MSLayerGroup" transform="translate(230.000000, 270.000000)">
                <g id="Group-10"></g>
            </g>
        </g>
    </g>
</svg>